<?xml version="1.0" encoding="UTF-8"?>
<svg version="1.1" xmlns="http://www.w3.org/2000/svg" width="500" height="500">
<path d="M0 0 C0.83241714 -0.0033284 1.66483429 -0.0066568 2.5224762 -0.01008606 C4.27629043 -0.01511601 6.03011411 -0.01749561 7.78393555 -0.01733398 C10.40365361 -0.01950004 13.02293539 -0.03764161 15.64257812 -0.05664062 C31.53145858 -0.11181946 46.86664047 1.30414099 62.37890625 4.85546875 C63.52447998 5.11457031 64.67005371 5.37367187 65.8503418 5.640625 C76.19719104 8.0648223 86.12866894 11.2592575 96.00390625 15.16796875 C96.64569824 15.42046387 97.28749023 15.67295898 97.94873047 15.93310547 C110.70591885 21.02170419 123.11392415 27.29820132 135.00390625 34.16796875 C135.00390625 34.82796875 135.00390625 35.48796875 135.00390625 36.16796875 C135.70515625 36.41675781 136.40640625 36.66554687 137.12890625 36.921875 C146.90770555 41.16024046 155.35012951 48.94449905 163.32421875 55.8828125 C165.97277157 58.2323066 165.97277157 58.2323066 169.00390625 60.16796875 C169.00390625 60.82796875 169.00390625 61.48796875 169.00390625 62.16796875 C169.66390625 62.16796875 170.32390625 62.16796875 171.00390625 62.16796875 C171.00390625 62.82796875 171.00390625 63.48796875 171.00390625 64.16796875 C171.5659375 64.40515625 172.12796875 64.64234375 172.70703125 64.88671875 C175.52284667 66.45744572 177.48346041 68.38268339 179.75390625 70.66796875 C180.553125 71.46203125 181.35234375 72.25609375 182.17578125 73.07421875 C184.00390625 75.16796875 184.00390625 75.16796875 184.00390625 77.16796875 C184.66390625 77.16796875 185.32390625 77.16796875 186.00390625 77.16796875 C186.00390625 77.82796875 186.00390625 78.48796875 186.00390625 79.16796875 C186.66390625 79.16796875 187.32390625 79.16796875 188.00390625 79.16796875 C189.73046875 81.06640625 189.73046875 81.06640625 191.62890625 83.54296875 C192.26054687 84.35507813 192.8921875 85.1671875 193.54296875 86.00390625 C195.00390625 88.16796875 195.00390625 88.16796875 195.00390625 90.16796875 C195.66390625 90.16796875 196.32390625 90.16796875 197.00390625 90.16796875 C198.84047648 92.61372812 200.56203291 95.06216473 202.25390625 97.60546875 C202.99217651 98.70121216 202.99217651 98.70121216 203.74536133 99.8190918 C204.72368458 101.27246701 205.69940535 102.72759785 206.67236328 104.18457031 C207.7861977 105.84368121 208.92177536 107.48816758 210.0625 109.12890625 C210.60003906 109.90492187 211.13757813 110.6809375 211.69140625 111.48046875 C212.14902344 112.13660156 212.60664063 112.79273437 213.078125 113.46875 C214.00390625 115.16796875 214.00390625 115.16796875 214.00390625 118.16796875 C214.66390625 118.16796875 215.32390625 118.16796875 216.00390625 118.16796875 C216.43058594 119.17730469 216.85726563 120.18664062 217.296875 121.2265625 C218.88637112 124.93538677 220.58998604 128.58315801 222.31640625 132.23046875 C228.5884631 145.64851673 233.92158893 158.9248837 238.00390625 173.16796875 C238.19726562 173.84102051 238.390625 174.51407227 238.58984375 175.20751953 C249.44016308 214.11731502 249.35253894 257.36211989 238.00390625 296.16796875 C237.62661377 297.45840088 237.62661377 297.45840088 237.24169922 298.77490234 C233.83335485 310.24295527 229.95139094 321.27737551 225.00390625 332.16796875 C224.32750001 333.8307065 223.65732904 335.49606538 223.00390625 337.16796875 C222.34390625 337.16796875 221.68390625 337.16796875 221.00390625 337.16796875 C220.90207031 337.86277344 220.80023438 338.55757813 220.6953125 339.2734375 C219.88673619 342.65849427 218.53714912 345.39083894 216.94140625 348.48046875 C216.39355469 349.54910156 215.84570312 350.61773437 215.28125 351.71875 C214.64896484 352.93111328 214.64896484 352.93111328 214.00390625 354.16796875 C213.34390625 354.16796875 212.68390625 354.16796875 212.00390625 354.16796875 C211.91882813 354.69648438 211.83375 355.225 211.74609375 355.76953125 C210.73613776 359.03328378 208.9803472 361.70482937 207.12890625 364.54296875 C206.73614502 365.15003662 206.34338379 365.75710449 205.9387207 366.38256836 C201.37743149 373.30415786 196.22078984 379.73518159 191.00390625 386.16796875 C190.27816406 387.12574219 189.55242187 388.08351563 188.8046875 389.0703125 C187.91330078 390.10865234 187.91330078 390.10865234 187.00390625 391.16796875 C186.34390625 391.16796875 185.68390625 391.16796875 185.00390625 391.16796875 C184.66359375 392.00328125 184.66359375 392.00328125 184.31640625 392.85546875 C182.63013358 395.8265206 180.47355225 397.81319 178.00390625 400.16796875 C176.79734375 401.40546875 176.79734375 401.40546875 175.56640625 402.66796875 C172.83264913 405.33504887 169.93713179 407.72361413 167.00390625 410.16796875 C166.25238281 410.93496094 165.50085938 411.70195312 164.7265625 412.4921875 C161.77834553 415.38964607 158.69762663 417.94267208 155.44140625 420.48046875 C154.82644287 420.9604834 154.21147949 421.44049805 153.57788086 421.93505859 C145.44227586 428.21999433 136.84908019 433.71579063 128.06640625 439.04296875 C127.43935791 439.42469238 126.81230957 439.80641602 126.16625977 440.19970703 C117.86012181 445.16796875 117.86012181 445.16796875 113.00390625 445.16796875 C113.00390625 445.82796875 113.00390625 446.48796875 113.00390625 447.16796875 C110.14164442 448.36057785 107.27899665 449.55209799 104.4140625 450.73828125 C102.28827757 451.6295038 100.16956985 452.53804625 98.0625 453.47265625 C91.29684276 456.43665847 84.59534079 458.49070005 77.44921875 460.2734375 C74.09550039 461.09413156 74.09550039 461.09413156 71.26171875 462.125 C39.69098016 472.2321789 4.42730582 472.82229331 -27.99609375 467.16796875 C-28.71667969 467.04518555 -29.43726563 466.92240234 -30.1796875 466.79589844 C-39.59233099 465.15636409 -48.82273999 462.82341326 -57.99609375 460.16796875 C-59.67832031 459.68263672 -59.67832031 459.68263672 -61.39453125 459.1875 C-69.90887236 456.53753091 -78.01834193 453.11140416 -86.18359375 449.54296875 C-87.28364746 449.06335693 -88.38370117 448.58374512 -89.51708984 448.08959961 C-90.55559082 447.6281958 -91.5940918 447.16679199 -92.6640625 446.69140625 C-93.59500732 446.27810059 -94.52595215 445.86479492 -95.48510742 445.43896484 C-97.89577239 444.21874882 -99.85877706 442.80610665 -101.99609375 441.16796875 C-104.14343302 440.46282029 -104.14343302 440.46282029 -105.99609375 440.16796875 C-105.99609375 439.50796875 -105.99609375 438.84796875 -105.99609375 438.16796875 C-106.79273438 438.03841797 -106.79273438 438.03841797 -107.60546875 437.90625 C-116.62455472 435.12094404 -125.33992894 427.30957862 -132.87109375 421.73046875 C-133.57911133 421.21057373 -134.28712891 420.69067871 -135.01660156 420.1550293 C-136.71585596 418.87680116 -138.36189651 417.52838489 -139.99609375 416.16796875 C-139.99609375 415.50796875 -139.99609375 414.84796875 -139.99609375 414.16796875 C-141.64609375 413.50796875 -143.29609375 412.84796875 -144.99609375 412.16796875 C-144.99609375 411.50796875 -144.99609375 410.84796875 -144.99609375 410.16796875 C-145.65609375 410.16796875 -146.31609375 410.16796875 -146.99609375 410.16796875 C-146.99609375 409.50796875 -146.99609375 408.84796875 -146.99609375 408.16796875 C-147.65609375 408.16796875 -148.31609375 408.16796875 -148.99609375 408.16796875 C-148.99609375 407.50796875 -148.99609375 406.84796875 -148.99609375 406.16796875 C-149.65609375 406.16796875 -150.31609375 406.16796875 -150.99609375 406.16796875 C-150.99609375 405.50796875 -150.99609375 404.84796875 -150.99609375 404.16796875 C-151.63546875 403.89984375 -152.27484375 403.63171875 -152.93359375 403.35546875 C-154.99609375 402.16796875 -154.99609375 402.16796875 -155.99609375 399.16796875 C-157.99625841 397.95914779 -157.99625841 397.95914779 -159.99609375 397.16796875 C-159.99609375 396.50796875 -159.99609375 395.84796875 -159.99609375 395.16796875 C-160.65609375 395.16796875 -161.31609375 395.16796875 -161.99609375 395.16796875 C-161.99609375 394.50796875 -161.99609375 393.84796875 -161.99609375 393.16796875 C-162.65609375 393.16796875 -163.31609375 393.16796875 -163.99609375 393.16796875 C-166.74117285 390.21582549 -169.18433972 387.01350225 -171.67578125 383.84570312 C-173.03499509 382.11853642 -174.40622695 380.40131969 -175.77734375 378.68359375 C-176.68455544 377.5333099 -177.59082634 376.38228336 -178.49609375 375.23046875 C-178.92921875 374.68753174 -179.36234375 374.14459473 -179.80859375 373.58520508 C-181.92378994 370.8611273 -183.52849286 368.63322538 -183.99609375 365.16796875 C-184.65609375 365.16796875 -185.31609375 365.16796875 -185.99609375 365.16796875 C-186.65609375 363.18796875 -187.31609375 361.20796875 -187.99609375 359.16796875 C-188.65609375 359.16796875 -189.31609375 359.16796875 -189.99609375 359.16796875 C-197.63340877 345.51337523 -204.37873387 331.76693151 -209.99609375 317.16796875 C-210.31054443 316.41338379 -210.62499512 315.65879883 -210.94897461 314.88134766 C-213.47601531 308.78498954 -215.41369493 302.681476 -217.05859375 296.29296875 C-217.31535889 295.30353271 -217.57212402 294.31409668 -217.83666992 293.29467773 C-220.25307446 283.67586832 -221.78212028 274.00186021 -222.99609375 264.16796875 C-223.16810303 262.95246338 -223.3401123 261.73695801 -223.51733398 260.48461914 C-224.08666066 255.90436401 -224.17478085 251.3652505 -224.19921875 246.75390625 C-224.20623306 245.86995178 -224.21324738 244.98599731 -224.22047424 244.07525635 C-224.23791927 241.23110835 -224.24432828 238.38716832 -224.24609375 235.54296875 C-224.24676849 234.57333191 -224.24744324 233.60369507 -224.24813843 232.60467529 C-224.23260044 218.58185587 -223.8958931 204.93630739 -220.99609375 191.16796875 C-220.82980469 190.33394531 -220.66351563 189.49992188 -220.4921875 188.640625 C-214.91545033 161.17003081 -205.0814322 134.8137488 -189.99609375 111.16796875 C-189.41214844 110.21921875 -188.82820313 109.27046875 -188.2265625 108.29296875 C-184.94529607 103.00605703 -181.4569218 97.876263 -177.87109375 92.79296875 C-177.46318604 92.2095874 -177.05527832 91.62620605 -176.63500977 91.02514648 C-174.03241809 87.38109777 -171.20650206 84.27913723 -167.99609375 81.16796875 C-166.21546216 79.23828579 -164.44511807 77.30230077 -162.68359375 75.35546875 C-152.32731464 64.00660309 -152.32731464 64.00660309 -148.99609375 61.16796875 C-148.33609375 61.16796875 -147.67609375 61.16796875 -146.99609375 61.16796875 C-146.99609375 60.50796875 -146.99609375 59.84796875 -146.99609375 59.16796875 C-145.3515625 57.765625 -145.3515625 57.765625 -143.18359375 56.23046875 C-140.5471256 54.35276557 -138.27401316 52.45716498 -135.99609375 50.16796875 C-117.1549232 34.23009254 -94.90461902 22.98266558 -71.99609375 14.16796875 C-71.24078369 13.85351807 -70.48547363 13.53906738 -69.70727539 13.21508789 C-63.631246 10.69820887 -57.54886686 8.75105216 -51.18359375 7.10546875 C-49.70221924 6.72032104 -49.70221924 6.72032104 -48.19091797 6.32739258 C-38.22820117 3.82917668 -28.19186696 2.32662312 -17.99609375 1.16796875 C-17.34335983 1.08537308 -16.69062592 1.0027774 -16.01811218 0.91767883 C-10.65985283 0.26755784 -5.39508136 0.00777658 0 0 Z " fill="#0156D0" transform="translate(237.99609375,13.83203125)"/>
<path d="M0 0 C1.6389624 0.17619873 1.6389624 0.17619873 3.31103516 0.35595703 C8.77437675 1.02824942 12.97731515 1.90763838 17.8125 4.6875 C19.36165166 5.13271838 20.92573199 5.52892125 22.5 5.875 C41.46327997 10.8421893 57.47014419 20.8118139 72.8125 32.6875 C73.97072266 33.49767578 73.97072266 33.49767578 75.15234375 34.32421875 C75.70019531 34.77410156 76.24804688 35.22398437 76.8125 35.6875 C76.8125 36.3475 76.8125 37.0075 76.8125 37.6875 C77.369375 37.914375 77.92625 38.14125 78.5 38.375 C81.46503447 40.0578574 83.46603689 42.22371374 85.8125 44.6875 C86.575625 45.409375 87.33875 46.13125 88.125 46.875 C89.8125 48.6875 89.8125 48.6875 89.8125 50.6875 C90.38484375 50.90535156 90.9571875 51.12320313 91.546875 51.34765625 C94.54837034 53.12267849 96.03643049 55.29975863 98.0625 58.125 C99.12210937 59.57712891 99.12210937 59.57712891 100.203125 61.05859375 C101.8125 63.6875 101.8125 63.6875 101.8125 66.6875 C96.0625 69.6875 96.0625 69.6875 93.8125 69.6875 C93.8125 70.3475 93.8125 71.0075 93.8125 71.6875 C79.58325099 79.6875 79.58325099 79.6875 76.8125 79.6875 C76.8125 80.3475 76.8125 81.0075 76.8125 81.6875 C75.69875 82.22375 74.585 82.76 73.4375 83.3125 C68.39416778 85.82968713 63.61758042 88.74801361 58.8125 91.6875 C57.99265625 92.17863281 57.1728125 92.66976562 56.328125 93.17578125 C54.63759657 94.19167333 52.95403682 95.21924453 51.27734375 96.2578125 C50.44332031 96.77085937 49.60929688 97.28390625 48.75 97.8125 C47.91339844 98.33070313 47.07679688 98.84890625 46.21484375 99.3828125 C44.03348793 100.56748379 42.23577686 101.22858845 39.8125 101.6875 C39.255625 101.04683594 38.69875 100.40617187 38.125 99.74609375 C33.3150203 94.29424176 28.4376937 89.28993121 22.8125 84.6875 C22.24660156 84.17574219 21.68070313 83.66398437 21.09765625 83.13671875 C14.66157221 77.68646815 6.70370524 75.30205055 -1.1875 72.6875 C-1.94442139 72.41534668 -2.70134277 72.14319336 -3.48120117 71.86279297 C-10.26805152 69.57208602 -16.61555805 69.1463428 -23.75 69.1875 C-25.46038452 69.19499268 -25.46038452 69.19499268 -27.20532227 69.20263672 C-46.34950526 69.59452019 -64.59131829 77.04755911 -78.2578125 90.765625 C-79.96162772 92.69809075 -81.58602178 94.66988964 -83.1875 96.6875 C-84.08223789 97.73010774 -84.97798329 98.77185221 -85.875 99.8125 C-89.92198953 104.84389238 -92.75132063 109.707787 -95.1875 115.6875 C-95.538125 116.3475 -95.88875 117.0075 -96.25 117.6875 C-103.08769263 132.2745776 -101.88121132 153.64058181 -97.1875 168.6875 C-90.3678119 185.74632544 -78.92573836 203.35944752 -61.3671875 210.8984375 C-60.64789063 211.15882813 -59.92859375 211.41921875 -59.1875 211.6875 C-59.1875 212.3475 -59.1875 213.0075 -59.1875 213.6875 C-57.75060534 214.12698405 -56.31293262 214.56392401 -54.875 215 C-54.07449219 215.24363281 -53.27398437 215.48726562 -52.44921875 215.73828125 C-51.37285156 216.05152344 -50.29648438 216.36476563 -49.1875 216.6875 C-48.42405273 216.93741699 -47.66060547 217.18733398 -46.87402344 217.44482422 C-39.22826937 219.79358414 -32.03255733 220.22686997 -24.0625 220.1875 C-22.15513062 220.18327026 -22.15513062 220.18327026 -20.20922852 220.17895508 C-9.02361291 219.98755945 2.78815033 218.94958396 11.8125 211.6875 C13.14781318 210.94423546 14.50233562 210.23428565 15.875 209.5625 C16.88240234 209.06363281 16.88240234 209.06363281 17.91015625 208.5546875 C19.8125 207.6875 19.8125 207.6875 22.8125 206.6875 C22.8125 206.0275 22.8125 205.3675 22.8125 204.6875 C26.27403846 201.6875 26.27403846 201.6875 28.8125 201.6875 C29.04839844 201.13320313 29.28429687 200.57890625 29.52734375 200.0078125 C31.1251455 197.12302758 33.13101009 194.97577968 35.375 192.5625 C38.44969186 189.37242491 38.44969186 189.37242491 40.8125 185.6875 C44.1382906 186.33144579 46.51524689 187.57999846 49.375 189.375 C53.01076389 191.61321695 56.67573194 193.73046944 60.4375 195.75 C63.72758532 197.52015858 66.92281433 199.35056947 70.0625 201.375 C72.50666927 202.94768268 74.85922658 204.184727 77.5625 205.25 C80.91285539 206.73188796 82.26531798 208.14031798 84.8125 210.6875 C87.7362089 212.49628543 90.77593422 214.07763814 93.8125 215.6875 C95.50192247 216.62153116 97.18951028 217.5588906 98.875 218.5 C99.62910156 218.91894531 100.38320313 219.33789062 101.16015625 219.76953125 C101.70542969 220.07246094 102.25070312 220.37539063 102.8125 220.6875 C102.8125 222.0075 102.8125 223.3275 102.8125 224.6875 C102.1525 224.6875 101.4925 224.6875 100.8125 224.6875 C100.55855469 225.41324219 100.30460937 226.13898438 100.04296875 226.88671875 C97.88707238 231.79394953 94.23643856 235.6087098 90.8125 239.6875 C90.21824219 240.40679687 89.62398438 241.12609375 89.01171875 241.8671875 C84.10510122 247.66489189 78.81272076 253.49005992 71.8125 256.6875 C71.8125 257.3475 71.8125 258.0075 71.8125 258.6875 C64.85455331 264.56074778 50.45041598 276.6875 40.8125 276.6875 C40.8125 277.3475 40.8125 278.0075 40.8125 278.6875 C39.95978516 278.96013672 39.95978516 278.96013672 39.08984375 279.23828125 C35.45326831 280.42214137 31.93637481 281.63244453 28.4375 283.1875 C20.07894384 286.64621289 11.36052789 288.22848126 2.47509766 289.68554688 C-1.4742133 290.29128827 -1.4742133 290.29128827 -5.1875 291.6875 C-7.75108204 291.83578158 -10.285782 291.92391771 -12.8515625 291.9609375 C-13.62773926 291.97337494 -14.40391602 291.98581238 -15.20361328 291.99862671 C-33.09864633 292.22929931 -49.86594376 291.74894527 -67.1875 286.6875 C-68.43015625 286.33042969 -69.6728125 285.97335937 -70.953125 285.60546875 C-73.74730364 284.72438981 -76.46199264 283.75976073 -79.1875 282.6875 C-80.15429688 282.31238281 -81.12109375 281.93726563 -82.1171875 281.55078125 C-84.48315858 280.6168453 -86.83898365 279.66431654 -89.1875 278.6875 C-89.1875 278.0275 -89.1875 277.3675 -89.1875 276.6875 C-89.76983398 276.55851318 -90.35216797 276.42952637 -90.95214844 276.29663086 C-97.55190382 274.49820473 -103.34560198 270.43869732 -108.9375 266.625 C-109.58332031 266.19123047 -110.22914063 265.75746094 -110.89453125 265.31054688 C-112.66735516 264.1147098 -114.42928915 262.90468181 -116.1875 261.6875 C-116.99703125 261.13191406 -117.8065625 260.57632812 -118.640625 260.00390625 C-119.15109375 259.56949219 -119.6615625 259.13507813 -120.1875 258.6875 C-120.1875 258.0275 -120.1875 257.3675 -120.1875 256.6875 C-120.744375 256.44 -121.30125 256.1925 -121.875 255.9375 C-126.78815746 253.28173921 -130.17894046 249.66234212 -133.703125 245.4296875 C-135.73389984 243.04619914 -137.94358705 240.86908204 -140.1875 238.6875 C-141.1775 237.6975 -141.1775 237.6975 -142.1875 236.6875 C-142.1875 235.6975 -142.1875 234.7075 -142.1875 233.6875 C-143.1775 233.3575 -144.1675 233.0275 -145.1875 232.6875 C-168.19216215 202.29117591 -178.29692844 162.64879711 -173.51464844 124.87133789 C-170.75403182 106.97059328 -164.55365132 88.80460392 -155.0625 73.375 C-154.58554688 72.59511719 -154.10859375 71.81523437 -153.6171875 71.01171875 C-153.14539063 70.24472656 -152.67359375 69.47773438 -152.1875 68.6875 C-151.41986328 67.40746094 -151.41986328 67.40746094 -150.63671875 66.1015625 C-148.90736571 63.22086121 -147.15312586 60.4140133 -145.1875 57.6875 C-144.5275 57.6875 -143.8675 57.6875 -143.1875 57.6875 C-142.97351563 56.99398437 -142.75953125 56.30046875 -142.5390625 55.5859375 C-140.81873134 51.89667241 -138.33795292 49.22668288 -135.5625 46.3125 C-135.02705566 45.74249268 -134.49161133 45.17248535 -133.93994141 44.58520508 C-125.59356795 35.79434278 -125.59356795 35.79434278 -121.1875 32.6875 C-120.5275 32.6875 -119.8675 32.6875 -119.1875 32.6875 C-119.1875 32.0275 -119.1875 31.3675 -119.1875 30.6875 C-113.77573529 26.6875 -113.77573529 26.6875 -111.1875 26.6875 C-111.1875 26.0275 -111.1875 25.3675 -111.1875 24.6875 C-107.39314673 22.0285782 -103.25740314 19.89504956 -99.1875 17.6875 C-98.25647461 17.17896484 -98.25647461 17.17896484 -97.30664062 16.66015625 C-88.73245478 12.02782343 -80.27909891 8.47507531 -70.90625 5.79296875 C-68.26246366 5.00705327 -65.82425169 4.17117851 -63.27734375 3.15625 C-43.82529415 -4.25864019 -20.20605586 -2.21097105 0 0 Z " fill="#FBFDFD" transform="translate(283.1875,103.3125)"/>
<path d="M0 0 C0.33 0 0.66 0 1 0 C0.85973717 2.31284456 0.71264442 4.62527591 0.5625 6.9375 C0.48128906 8.22527344 0.40007813 9.51304687 0.31640625 10.83984375 C0 14 0 14 -1 15 C-1.39034355 18.85887788 -1.43480271 22.74976746 -1.5625 26.625 C-1.6049585 27.86145264 -1.64741699 29.09790527 -1.69116211 30.37182617 C-2.31965877 50.57032879 -2.08319141 70.79472745 -2 91 C-2.33 91 -2.66 91 -3 91 C-4.83044348 78.23718828 -5.36029207 65.69741279 -5.3125 52.8125 C-5.31167419 51.86932922 -5.31084839 50.92615845 -5.30999756 49.95440674 C-5.27554144 32.85365384 -3.82821238 16.67410089 0 0 Z " fill="#4C86D5" transform="translate(19,196)"/>
<path d="M0 0 C0.33 0 0.66 0 1 0 C4.97473729 22.76010283 5.75409928 46.14021687 2 69 C1.67 69 1.34 69 1 69 C0.67 46.23 0.34 23.46 0 0 Z " fill="#3671C3" transform="translate(480,211)"/>
<path d="M0 0 C1.29406517 -0.00855011 1.29406517 -0.00855011 2.61427307 -0.01727295 C4.44946053 -0.0267451 6.28466517 -0.03326567 8.11987305 -0.03710938 C10.89858956 -0.04672681 13.67653825 -0.07769098 16.45507812 -0.109375 C33.78242814 -0.21033723 33.78242814 -0.21033723 41.50390625 3.203125 C37.61271123 4.32261043 34.83457789 3.91895153 30.81640625 3.265625 C12.31891253 0.66019065 -10.11522424 -0.12933039 -27.8046875 6.80859375 C-31.49609375 8.203125 -31.49609375 8.203125 -35.49609375 8.203125 C-35.49609375 7.543125 -35.49609375 6.883125 -35.49609375 6.203125 C-32.85609375 5.543125 -30.21609375 4.883125 -27.49609375 4.203125 C-27.49609375 3.873125 -27.49609375 3.543125 -27.49609375 3.203125 C-26.20832031 3.07035156 -24.92054688 2.93757813 -23.59375 2.80078125 C-21.91534013 2.62262601 -20.23695602 2.44422808 -18.55859375 2.265625 C-17.70845703 2.17861328 -16.85832031 2.09160156 -15.98242188 2.00195312 C-14.7690918 1.87143555 -14.7690918 1.87143555 -13.53125 1.73828125 C-12.78238525 1.659729 -12.03352051 1.58117676 -11.26196289 1.50024414 C-2.4184145 0.01225874 -2.4184145 0.01225874 0 0 Z " fill="#2D6DC5" transform="translate(247.49609375,100.796875)"/>
<path d="M0 0 C1.07894531 0.45761719 2.15789062 0.91523438 3.26953125 1.38671875 C3.92131348 1.66306152 4.5730957 1.9394043 5.24462891 2.22412109 C6.9223824 2.93847871 8.59633986 3.66174002 10.26953125 4.38671875 C7.13779124 5.43063209 5.44457012 5.39368135 2.20703125 5.07421875 C1.32917969 4.99558594 0.45132813 4.91695312 -0.453125 4.8359375 C-2.73046875 4.38671875 -2.73046875 4.38671875 -4.73046875 2.38671875 C-7.76307772 0.36497943 -8.81736912 0.09333437 -12.29296875 -0.17578125 C-16.53868793 -0.51739084 -16.53868793 -0.51739084 -18.73046875 -1.61328125 C-20.54388717 -1.69799489 -22.36041036 -1.72049208 -24.17578125 -1.7109375 C-25.25214844 -1.70771484 -26.32851563 -1.70449219 -27.4375 -1.70117188 C-29.12939453 -1.68860352 -29.12939453 -1.68860352 -30.85546875 -1.67578125 C-31.99113281 -1.67126953 -33.12679687 -1.66675781 -34.296875 -1.66210938 C-37.10812513 -1.6502974 -39.91927105 -1.63382632 -42.73046875 -1.61328125 C-31.56827584 -8.20029214 -11.59606507 -4.25743073 0 0 Z " fill="#2D6DCA" transform="translate(284.73046875,175.61328125)"/>
<path d="M0 0 C0.33 1.32 0.66 2.64 1 4 C0.01 4.66 -0.98 5.32 -2 6 C-2.33 6.99 -2.66 7.98 -3 9 C-3.66 9 -4.32 9 -5 9 C-4.67 10.32 -4.34 11.64 -4 13 C-7.625 16 -7.625 16 -11 16 C-10.62875 16.8353125 -10.62875 16.8353125 -10.25 17.6875 C-10 20 -10 20 -11.75 22.75 C-12.4925 23.4925 -13.235 24.235 -14 25 C-14.99 25 -15.98 25 -17 25 C-17 25.99 -17 26.98 -17 28 C-18.32 27.67 -19.64 27.34 -21 27 C-20.46890625 26.27554688 -19.9378125 25.55109375 -19.390625 24.8046875 C-14.96696704 18.80779487 -14.96696704 18.80779487 -10.8125 12.625 C-8.80878425 9.72306684 -6.52148985 7.45845261 -4 5 C-2.64444707 3.35135455 -1.30368347 1.68996005 0 0 Z " fill="#538AD7" transform="translate(74,90)"/>
<path d="M0 0 C2.10409639 -0.02701408 4.20829178 -0.04640223 6.3125 -0.0625 C7.48425781 -0.07410156 8.65601563 -0.08570313 9.86328125 -0.09765625 C13 0 13 0 16 1 C18.81558923 1.2045635 21.61850841 1.37218678 24.4375 1.5 C25.95720266 1.56925227 27.47674849 1.64205546 28.99609375 1.71875 C29.66825928 1.74904297 30.3404248 1.77933594 31.03295898 1.81054688 C33 2 33 2 34.89770508 2.49780273 C37.50011065 3.11946668 39.96706223 3.2168587 42.640625 3.31640625 C43.71054688 3.35830078 44.78046875 3.40019531 45.8828125 3.44335938 C46.99398437 3.48267578 48.10515625 3.52199219 49.25 3.5625 C50.93996094 3.62727539 50.93996094 3.62727539 52.6640625 3.69335938 C55.44258954 3.79932015 58.22120391 3.90139142 61 4 C61 4.33 61 4.66 61 5 C43.49684608 5.33590346 26.56587991 5.19217485 9.234375 2.36376953 C6.16222752 1.86360566 3.08247096 1.43137841 0 1 C0 0.67 0 0.34 0 0 Z " fill="#92BAE8" transform="translate(203,479)"/>
<path d="M0 0 C0.99 0.33 1.98 0.66 3 1 C2.34 1 1.68 1 1 1 C0.731875 1.763125 0.46375 2.52625 0.1875 3.3125 C-0.98525491 5.96662954 -1.95681362 7.03854108 -4 9 C-4.4125 9.7425 -4.825 10.485 -5.25 11.25 C-8.2880772 16.02412132 -12.30297672 19.86865115 -17 23 C-19.1875 22.625 -19.1875 22.625 -21 22 C-20.01 21.67 -19.02 21.34 -18 21 C-18 20.34 -18 19.68 -18 19 C-14.53846154 16 -14.53846154 16 -12 16 C-11.76410156 15.44570313 -11.52820313 14.89140625 -11.28515625 14.3203125 C-9.6873545 11.43552758 -7.68148991 9.28827968 -5.4375 6.875 C-2.36280814 3.68492491 -2.36280814 3.68492491 0 0 Z " fill="#DFF1FD" transform="translate(324,289)"/>
<path d="M0 0 C2.97 0 5.94 0 9 0 C9 0.66 9 1.32 9 2 C11.31 2 13.62 2 16 2 C16 2.33 16 2.66 16 3 C20.16665169 3.02926019 24.33327659 3.04688594 28.5 3.0625 C30.25957031 3.07506836 30.25957031 3.07506836 32.0546875 3.08789062 C38.13794882 3.10497844 43.98754144 2.94502752 50 2 C44.48209977 7.51790023 32.33644364 5.29793025 25.11254883 5.33007812 C16.12341944 5.2625795 8.34793537 4.57540635 0 1 C0 0.67 0 0.34 0 0 Z " fill="#2464C2" transform="translate(231,319)"/>
<path d="M0 0 C0.33 0 0.66 0 1 0 C1.41277905 32.30789898 1.41277905 32.30789898 -1 47 C-1.33 47 -1.66 47 -2 47 C-2 38.42 -2 29.84 -2 21 C-1.67 21 -1.34 21 -1 21 C-0.67 14.07 -0.34 7.14 0 0 Z " fill="#85B3E4" transform="translate(483,233)"/>
<path d="M0 0 C0.66 0.66 1.32 1.32 2 2 C1.8125 4.0625 1.8125 4.0625 1 6 C0.01 6.33 -0.98 6.66 -2 7 C-2 7.99 -2 8.98 -2 10 C-2.66 10 -3.32 10 -4 10 C-4 11.98 -4 13.96 -4 16 C-4.99 16.33 -5.98 16.66 -7 17 C-8.71567661 20.50294871 -8.71567661 20.50294871 -10 24 C-10.66 24 -11.32 24 -12 24 C-9.48642249 15.31673223 -4.93277703 7.51461352 0 0 Z " fill="#5790D8" transform="translate(47,127)"/>
<path d="M0 0 C0.96550781 0.00902344 1.93101562 0.01804687 2.92578125 0.02734375 C5.28412099 0.05069365 7.64192286 0.08343953 10 0.125 C10 0.455 10 0.785 10 1.125 C0.39937232 3.30311597 -9.20132967 3.71537462 -19 4.125 C-19 3.465 -19 2.805 -19 2.125 C-12.53546326 0.18868829 -6.72378423 -0.12056441 0 0 Z " fill="#4C84D3" transform="translate(283,478.875)"/>
<path d="M0 0 C6.52790927 0.5547583 12.1679702 2.2109582 18.3125 4.4375 C19.20517578 4.75009766 20.09785156 5.06269531 21.01757812 5.38476562 C24.68294677 6.68929487 27.74307386 7.82871591 31 10 C29.10256258 9.76282032 27.20524071 9.52466993 25.30859375 9.28125 C23.78217478 9.09529033 22.25331585 8.92827734 20.72265625 8.78125 C18.80720654 8.58728041 16.9016866 8.30026631 15 8 C14.67 7.34 14.34 6.68 14 6 C12.04584496 5.26323462 10.06041887 4.60816555 8.0625 4 C2.2161235 2.2161235 2.2161235 2.2161235 0 0 Z " fill="#5287D4" transform="translate(306,21)"/>
<path d="M0 0 C0 0.66 0 1.32 0 2 C-3.14930893 3.04976964 -5.38814456 3.10131595 -8.6875 3.0625 C-9.68136719 3.05347656 -10.67523438 3.04445313 -11.69921875 3.03515625 C-12.83810547 3.01775391 -12.83810547 3.01775391 -14 3 C-14 3.66 -14 4.32 -14 5 C-18.62 5 -23.24 5 -28 5 C-28 4.67 -28 4.34 -28 4 C-25.02307914 3.32163757 -22.04411189 2.65715348 -19.0625 2 C-17.81629883 1.71382812 -17.81629883 1.71382812 -16.54492188 1.421875 C-10.90511965 0.19296868 -5.77172342 -0.1863725 0 0 Z " fill="#487FCE" transform="translate(219,16)"/>
<path d="M0 0 C0 0.66 0 1.32 0 2 C-0.8971875 2.2784375 -0.8971875 2.2784375 -1.8125 2.5625 C-4.99799246 4.65582362 -5.55795606 7.55163407 -7 11 C-7.99 11.33 -8.98 11.66 -10 12 C-10.33 11.34 -10.66 10.68 -11 10 C-10.67 9.34 -10.34 8.68 -10 8 C-11.98 8 -13.96 8 -16 8 C-13.5615972 5.5615972 -11.0864312 4.41079629 -8 2.875 C-6.9275 2.33617187 -5.855 1.79734375 -4.75 1.2421875 C-2 0 -2 0 0 0 Z " fill="#3273D1" transform="translate(151,35)"/>
<path d="M0 0 C0.66 0 1.32 0 2 0 C2 1.65 2 3.3 2 5 C2.66 5 3.32 5 4 5 C4 5.66 4 6.32 4 7 C4.99 6.67 5.98 6.34 7 6 C6.979375 6.9075 6.95875 7.815 6.9375 8.75 C6.9889755 11.42672588 7.2215017 13.46988052 8 16 C8.66 16 9.32 16 10 16 C10 18.31 10 20.62 10 23 C6.91480224 19.91480224 5.61879514 16.02146952 3.875 12.0625 C3.50246094 11.23814453 3.12992188 10.41378906 2.74609375 9.56445312 C2.39417969 8.77103516 2.04226562 7.97761719 1.6796875 7.16015625 C1.35726074 6.43449463 1.03483398 5.70883301 0.70263672 4.96118164 C0 3 0 3 0 0 Z " fill="#4680D1" transform="translate(29,331)"/>
<path d="M0 0 C0.83753431 2.89792617 1.09915437 5.40316866 1.02734375 8.4140625 C1.00716187 9.67283203 1.00716187 9.67283203 0.98657227 10.95703125 C0.97037842 11.83746094 0.95418457 12.71789062 0.9375 13.625 C0.86374945 20.00070656 0.91962364 25.9364396 2.66015625 32.125 C3.06433814 34.35496906 2.68297643 35.86032559 2 38 C1.505 36.515 1.505 36.515 1 35 C0.34 34.67 -0.32 34.34 -1 34 C-1.02468857 29.4793335 -1.04285449 24.9587061 -1.05493164 20.43798828 C-1.05996552 18.89956987 -1.06679308 17.36115625 -1.07543945 15.82275391 C-1.08754639 13.61359474 -1.09323769 11.40449874 -1.09765625 9.1953125 C-1.10281754 8.50567413 -1.10797882 7.81603577 -1.11329651 7.10549927 C-1.11387171 2.22774341 -1.11387171 2.22774341 0 0 Z " fill="#A4C7ED" transform="translate(182,234)"/>
<path d="M0 0 C0 0.66 0 1.32 0 2 C-4.27860569 5.38813446 -8.84782022 7.32254612 -14 9 C-14.515625 9.53625 -15.03125 10.0725 -15.5625 10.625 C-17 12 -17 12 -19.6875 12.1875 C-20.450625 12.125625 -21.21375 12.06375 -22 12 C-18.53952673 7.97787923 -14.56422283 6.01491979 -9.875 3.75 C-9.14667969 3.38648437 -8.41835937 3.02296875 -7.66796875 2.6484375 C-2.28148496 0 -2.28148496 0 0 0 Z " fill="#D7EDFB" transform="translate(198,115)"/>
<path d="M0 0 C2.97932935 3.48930465 4.54739251 7.39716735 6.1875 11.625 C6.46013672 12.305625 6.73277344 12.98625 7.01367188 13.6875 C9 18.72550517 9 18.72550517 9 21 C8.34 21 7.68 21 7 21 C4.8480563 17.77208445 4.79913557 16.71599191 5 13 C4.34 13 3.68 13 3 13 C3 12.01 3 11.02 3 10 C1.68 9.67 0.36 9.34 -1 9 C-0.835 8.2575 -0.67 7.515 -0.5 6.75 C0.11925696 3.80993422 0.11925696 3.80993422 0 0 Z " fill="#3170CD" transform="translate(460,147)"/>
<path d="M0 0 C6.75 -0.125 6.75 -0.125 9 1 C9 1.66 9 2.32 9 3 C9.721875 3.12375 10.44375 3.2475 11.1875 3.375 C14 4 14 4 16.5625 5.0625 C19.18696827 6.23931939 19.18696827 6.23931939 23 6 C23 7.32 23 8.64 23 10 C17.5610291 8.67047378 12.71289912 6.59861162 7.6484375 4.21875 C5.1272426 3.05855412 2.5852677 2.00797441 0 1 C0 0.67 0 0.34 0 0 Z " fill="#2D6CC8" transform="translate(305,108)"/>
<path d="M0 0 C7.244298 2.13766171 13.46718285 5.22684019 20 9 C17.50907189 10.24546405 16.58919267 9.7767578 14 9 C14 8.34 14 7.68 14 7 C9.0391388 5.94769611 4.08190964 5 -1 5 C-0.67 3.35 -0.34 1.7 0 0 Z " fill="#4880D2" transform="translate(337,31)"/>
<path d="M0 0 C2.94956528 1.36944102 5.52468811 2.87830409 8 5 C8 5.66 8 6.32 8 7 C8.66 7 9.32 7 10 7 C10 7.66 10 8.32 10 9 C10.928125 9.2475 11.85625 9.495 12.8125 9.75 C16.16458325 11.06454245 17.1877803 11.97963384 19 15 C18.01 15.495 18.01 15.495 17 16 C14.96166576 14.7260411 12.96147874 13.38938077 11 12 C11 11.34 11 10.68 11 10 C8.525 9.01 8.525 9.01 6 8 C6 7.34 6 6.68 6 6 C5.34 6 4.68 6 4 6 C4 5.34 4 4.68 4 4 C3.34 4 2.68 4 2 4 C2 3.34 2 2.68 2 2 C1.34 2 0.68 2 0 2 C0 1.34 0 0.68 0 0 Z " fill="#4F82CE" transform="translate(87,418)"/>
<path d="M0 0 C0.66 0.33 1.32 0.66 2 1 C-1.34969325 6.90184049 -1.34969325 6.90184049 -4 9 C-4.99 9 -5.98 9 -7 9 C-7.12375 9.61875 -7.2475 10.2375 -7.375 10.875 C-8 13 -8 13 -10 15 C-10.99 14.67 -11.98 14.34 -13 14 C-11.2088872 12.04115757 -9.41713468 10.08290714 -7.625 8.125 C-7.11710938 7.56941406 -6.60921875 7.01382813 -6.0859375 6.44140625 C-4.0883974 4.25988219 -2.09183907 2.09183907 0 0 Z " fill="#CAE3F9" transform="translate(156,141)"/>
<path d="M0 0 C0.33 0.66 0.66 1.32 1 2 C-0.88935711 6.09360707 -2.96616255 8.03479714 -7 10 C-7.66 10 -8.32 10 -9 10 C-9.04125 10.598125 -9.0825 11.19625 -9.125 11.8125 C-10 14 -10 14 -12.9375 15.8125 C-13.948125 16.204375 -14.95875 16.59625 -16 17 C-16.66 16.67 -17.32 16.34 -18 16 C-12.25 11 -12.25 11 -10 11 C-10 10.34 -10 9.68 -10 9 C-8.3203125 7.59765625 -8.3203125 7.59765625 -6.125 6.0625 C-3.32503965 4.10052062 -1.93937238 2.90905857 0 0 Z " fill="#3B77CB" transform="translate(365,351)"/>
<path d="M0 0 C0.99 0 1.98 0 3 0 C3 0.99 3 1.98 3 3 C2.34 3 1.68 3 1 3 C0.89816406 3.69480469 0.79632813 4.38960938 0.69140625 5.10546875 C-0.11717006 8.49052552 -1.46675713 11.22287019 -3.0625 14.3125 C-3.61035156 15.38113281 -4.15820312 16.44976562 -4.72265625 17.55078125 C-5.14417969 18.35902344 -5.56570313 19.16726563 -6 20 C-6.66 20 -7.32 20 -8 20 C-8 18.35 -8 16.7 -8 15 C-7.01 15 -6.02 15 -5 15 C-4.67 13.02 -4.34 11.04 -4 9 C-3.34 9 -2.68 9 -2 9 C-1.855625 7.700625 -1.71125 6.40125 -1.5625 5.0625 C-1.125 1.125 -1.125 1.125 0 0 Z " fill="#437CCC" transform="translate(458,348)"/>
<path d="M0 0 C2.97 0 5.94 0 9 0 C9 0.66 9 1.32 9 2 C10.32 2.66 11.64 3.32 13 4 C12.67 4.33 12.34 4.66 12 5 C13.32 5.66 14.64 6.32 16 7 C16 7.66 16 8.32 16 9 C14.02 8.34 12.04 7.68 10 7 C10 6.34 10 5.68 10 5 C9.278125 4.9175 8.55625 4.835 7.8125 4.75 C4.44686746 3.85249799 2.58387184 2.2885722 0 0 Z " fill="#286AC6" transform="translate(214,310)"/>
<path d="M0 0 C1 2 1 2 0.109375 4.86328125 C-0.33921875 6.00152344 -0.7878125 7.13976562 -1.25 8.3125 C-1.90742188 10.00826172 -1.90742188 10.00826172 -2.578125 11.73828125 C-3.86045356 14.67988661 -5.21907917 17.33362134 -7 20 C-7.33 20 -7.66 20 -8 20 C-8 18.02 -8 16.04 -8 14 C-7.01 14 -6.02 14 -5 14 C-4.67 10.37 -4.34 6.74 -4 3 C-3.01 3 -2.02 3 -1 3 C-0.67 2.01 -0.34 1.02 0 0 Z " fill="#4D85D5" transform="translate(469,327)"/>
<path d="M0 0 C2.64 0 5.28 0 8 0 C8 0.66 8 1.32 8 2 C8.90492188 1.93039062 8.90492188 1.93039062 9.828125 1.859375 C16.4373928 1.56089194 16.4373928 1.56089194 19.5625 4 C20.036875 4.66 20.51125 5.32 21 6 C13.50559651 5.5003731 7.04349737 3.56235522 0 1 C0 0.67 0 0.34 0 0 Z " fill="#3B7BCE" transform="translate(174,471)"/>
<path d="M0 0 C0.33 1.32 0.66 2.64 1 4 C0.34 4 -0.32 4 -1 4 C-1.12375 4.61875 -1.2475 5.2375 -1.375 5.875 C-2 8 -2 8 -4 10 C-4.99 10 -5.98 10 -7 10 C-6.67 11.65 -6.34 13.3 -6 15 C-7.65 14.67 -9.3 14.34 -11 14 C-8.93687686 10.33584124 -6.64127824 7.29451872 -3.8125 4.1875 C-3.09707031 3.39730469 -2.38164062 2.60710937 -1.64453125 1.79296875 C-1.10183594 1.20128906 -0.55914062 0.60960937 0 0 Z " fill="#2C6DC8" transform="translate(378,337)"/>
<path d="M0 0 C2.64 0 5.28 0 8 0 C0.7862715 3.89646649 -7.76101485 6.76641722 -16 6 C-14 4 -14 4 -12.0546875 3.8046875 C-10.03645833 3.86979167 -8.01822917 3.93489583 -6 4 C-6 3.34 -6 2.68 -6 2 C-4.02 2 -2.04 2 0 2 C0 1.34 0 0.68 0 0 Z " fill="#C9E2FB" transform="translate(306,385)"/>
<path d="M0 0 C0.66 0.33 1.32 0.66 2 1 C-0.31277261 4.46915891 -1.24942203 4.55091306 -5 6 C-6.485 7.0209375 -6.485 7.0209375 -8 8.0625 C-10.84594422 9.90050564 -12.68329188 10.60979904 -16 11 C-13.74259377 8.66475218 -11.7194239 6.81294927 -9 5 C-8.01 5 -7.02 5 -6 5 C-6 4.34 -6 3.68 -6 3 C-4.03533587 1.93224776 -2.03144641 0.93446535 0 0 Z " fill="#2C6BC6" transform="translate(383,170)"/>
<path d="M0 0 C0.99 0.33 1.98 0.66 3 1 C3 1.66 3 2.32 3 3 C3.66 3 4.32 3 5 3 C5 3.66 5 4.32 5 5 C5.556875 5.20625 6.11375 5.4125 6.6875 5.625 C9.92501302 7.55000774 11.68231141 10.03850902 14 13 C9.25 12.125 9.25 12.125 7 11 C7 9.68 7 8.36 7 7 C5.68 6.67 4.36 6.34 3 6 C3 5.34 3 4.68 3 4 C2.34 4 1.68 4 1 4 C0.67 2.68 0.34 1.36 0 0 Z " fill="#4276CC" transform="translate(404,73)"/>
<path d="M0 0 C1.65 0.33 3.3 0.66 5 1 C5 1.66 5 2.32 5 3 C3.171875 4.47265625 3.171875 4.47265625 0.75 6.0625 C-0.03890625 6.58972656 -0.8278125 7.11695313 -1.640625 7.66015625 C-3.81388284 8.89430764 -5.56017928 9.54673055 -8 10 C-8 8.68 -8 7.36 -8 6 C-5.36 5.67 -2.72 5.34 0 5 C0 3.35 0 1.7 0 0 Z " fill="#5089D3" transform="translate(372,443)"/>
<path d="M0 0 C0.66 0.66 1.32 1.32 2 2 C1.625 4.125 1.625 4.125 1 6 C1.61875 6.0825 2.2375 6.165 2.875 6.25 C5 7 5 7 6.25 9.0625 C6.4975 9.701875 6.745 10.34125 7 11 C3.40241608 9.67726488 0.36262865 8.0805802 -2.8125 5.9375 C-3.60269531 5.41027344 -4.39289063 4.88304687 -5.20703125 4.33984375 C-5.79871094 3.89769531 -6.39039062 3.45554687 -7 3 C-7 2.67 -7 2.34 -7 2 C-4.69 1.34 -2.38 0.68 0 0 Z " fill="#4B81D8" transform="translate(118,437)"/>
<path d="M0 0 C1.85323235 3.70646471 3.03235664 7.0966468 4.1875 11.0625 C4.55230469 12.29097656 4.91710937 13.51945313 5.29296875 14.78515625 C6 18 6 18 5 21 C4.67 19.68 4.34 18.36 4 17 C3.34 17 2.68 17 2 17 C2 14.36 2 11.72 2 9 C1.34 9 0.68 9 0 9 C0 6.03 0 3.06 0 0 Z " fill="#3E7ACD" transform="translate(471,174)"/>
<path d="M0 0 C5.47932789 1.54545146 10.11429181 4.15543212 15 7 C15 7.66 15 8.32 15 9 C15.66 9.33 16.32 9.66 17 10 C12.25 9.125 12.25 9.125 10 8 C10 7.34 10 6.68 10 6 C8.02 6 6.04 6 4 6 C4 5.01 4 4.02 4 3 C2.68 2.34 1.36 1.68 0 1 C0 0.67 0 0.34 0 0 Z " fill="#5E8FD7" transform="translate(358,41)"/>
<path d="M0 0 C-0.33 0.99 -0.66 1.98 -1 3 C-1.99 3 -2.98 3 -4 3 C-4 3.66 -4 4.32 -4 5 C-5.41377782 5.36552803 -6.83120576 5.71695495 -8.25 6.0625 C-9.03890625 6.25972656 -9.8278125 6.45695312 -10.640625 6.66015625 C-13.10394822 7.01497267 -14.65604132 6.76877544 -17 6 C-14.5433053 4.99580363 -12.08481647 3.99649499 -9.625 3 C-8.92632812 2.71382812 -8.22765625 2.42765625 -7.5078125 2.1328125 C-2.2265625 0 -2.2265625 0 0 0 Z " fill="#5289D5" transform="translate(168,28)"/>
<path d="M0 0 C3.0721297 3.0721297 3.56746919 6.87726553 4.6875 11 C4.92533203 11.83273437 5.16316406 12.66546875 5.40820312 13.5234375 C5.62798828 14.32007813 5.84777344 15.11671875 6.07421875 15.9375 C6.27619873 16.66839844 6.47817871 17.39929688 6.6862793 18.15234375 C7 20 7 20 6 22 C3.82492851 19.82492851 3.61357218 19.0285112 3 16.125 C2.47533862 13.80149961 2.04773777 12.08486716 0.875 10 C-0.55393899 6.73385373 -0.11779717 3.53391515 0 0 Z " fill="#306EC4" transform="translate(111,276)"/>
<path d="M0 0 C0.33 1.32 0.66 2.64 1 4 C0.01 4.66 -0.98 5.32 -2 6 C-2.33 6.99 -2.66 7.98 -3 9 C-3.66 9 -4.32 9 -5 9 C-4.67 10.32 -4.34 11.64 -4 13 C-7.75 16 -7.75 16 -10 16 C-8.55797524 11.84848662 -6.4989562 8.70021555 -3.875 5.1875 C-3.15054688 4.21167969 -2.42609375 3.23585938 -1.6796875 2.23046875 C-0.84824219 1.12638672 -0.84824219 1.12638672 0 0 Z " fill="#3B78CD" transform="translate(74,90)"/>
<path d="M0 0 C0 0.66 0 1.32 0 2 C-0.66 2 -1.32 2 -2 2 C-2.33 3.65 -2.66 5.3 -3 7 C-6.3 7.33 -9.6 7.66 -13 8 C-9.81692689 4.43495812 -5.03655764 0 0 0 Z " fill="#5389D6" transform="translate(127,48)"/>
<path d="M0 0 C-2 2 -2 2 -5.125 2.125 C-6.07375 2.08375 -7.0225 2.0425 -8 2 C-8 2.66 -8 3.32 -8 4 C-11.63 4.33 -15.26 4.66 -19 5 C-16.4156782 2.4156782 -14.10624423 1.89598837 -10.625 0.8125 C-9.48289063 0.44769531 -8.34078125 0.08289063 -7.1640625 -0.29296875 C-4.18525347 -0.95860385 -2.79128097 -1.07938697 0 0 Z " fill="#4E87D3" transform="translate(188,23)"/>
<path d="M0 0 C0.99 0.33 1.98 0.66 3 1 C2.34 1 1.68 1 1 1 C0.731875 1.763125 0.46375 2.52625 0.1875 3.3125 C-0.9750973 5.94364126 -1.97291463 7.05737652 -4 9 C-4.268125 9.680625 -4.53625 10.36125 -4.8125 11.0625 C-6.57484972 13.9379127 -8.8451787 14.17700314 -12 15 C-11.13375 14.01 -10.2675 13.02 -9.375 12 C-6.05802459 8.13809292 -3.00716738 4.10552994 0 0 Z " fill="#C0DBF8" transform="translate(324,289)"/>
<path d="M0 0 C1.1700097 3.91736581 0.69584017 6.97959015 0 11 C-0.66 11 -1.32 11 -2 11 C-2.33 14.3 -2.66 17.6 -3 21 C-3.66 21 -4.32 21 -5 21 C-4.42351925 13.64987044 -2.28953836 6.98575424 0 0 Z " fill="#4C84D3" transform="translate(25,175)"/>
<path d="M0 0 C1.13591405 3.33958732 0.86125931 5.16538247 -0.375 8.4375 C-1.52402258 11.61698714 -2.4596614 14.64990069 -3 18 C-3.99 18.33 -4.98 18.66 -6 19 C-5.39124245 14.39583374 -4.15277044 10.43516676 -2.4375 6.125 C-1.75494141 4.39636719 -1.75494141 4.39636719 -1.05859375 2.6328125 C-0.70925781 1.76398438 -0.35992187 0.89515625 0 0 Z " fill="#5A92DA" transform="translate(32,156)"/>
<path d="M0 0 C2 1.8125 2 1.8125 4 4 C4 4.99 4 5.98 4 7 C4.66 7 5.32 7 6 7 C6.66 9.31 7.32 11.62 8 14 C7.030625 13.175 6.06125 12.35 5.0625 11.5 C2.52977999 8.89460392 2.52977999 8.89460392 1 9 C0.67 6.03 0.34 3.06 0 0 Z " fill="#5388CF" transform="translate(448,125)"/>
<path d="M0 0 C-3.49971306 1.25630725 -7.01393857 2.3101016 -10.625 3.1875 C-11.72714844 3.45626953 -11.72714844 3.45626953 -12.8515625 3.73046875 C-15.1857881 4.02330796 -16.77442343 3.709969 -19 3 C-17.02 2.67 -15.04 2.34 -13 2 C-13 1.34 -13 0.68 -13 0 C-11.58456585 -0.19658808 -10.16755969 -0.38187546 -8.75 -0.5625 C-7.96109375 -0.66691406 -7.1721875 -0.77132813 -6.359375 -0.87890625 C-3.99467126 -1.00027349 -2.2488963 -0.69633257 0 0 Z " fill="#598AD5" transform="translate(312,475)"/>
<path d="M0 0 C2.97 0.495 2.97 0.495 6 1 C6 3 6 3 3.625 5.625 C1 8 1 8 -1 8 C-1.625 5.6875 -1.625 5.6875 -2 3 C-1.34 2.01 -0.68 1.02 0 0 Z " fill="#3B78D2" transform="translate(412,410)"/>
<path d="M0 0 C0.99 0.33 1.98 0.66 3 1 C1.71580959 2.67243402 0.42242815 4.33781447 -0.875 6 C-1.59429687 6.928125 -2.31359375 7.85625 -3.0546875 8.8125 C-3.69664062 9.534375 -4.33859375 10.25625 -5 11 C-5.66 11 -6.32 11 -7 11 C-7.33 11.66 -7.66 12.32 -8 13 C-8.33 11.35 -8.66 9.7 -9 8 C-8.01 8 -7.02 8 -6 8 C-3.25263337 5.82500142 -1.71296218 3.01807623 0 0 Z " fill="#5A8DD5" transform="translate(430,394)"/>
<path d="M0 0 C0.99 0 1.98 0 3 0 C3.80967438 2.91482778 4.21845993 4.46113217 3.0625 7.3125 C2.5365625 8.1478125 2.5365625 8.1478125 2 9 C1.01 9 0.02 9 -1 9 C-1.125 2.25 -1.125 2.25 0 0 Z " fill="#2065CB" transform="translate(34,151)"/>
<path d="M0 0 C0.33 0.66 0.66 1.32 1 2 C1.99 2 2.98 2 4 2 C4.33 2.99 4.66 3.98 5 5 C4.34 5 3.68 5 3 5 C2.34 6.65 1.68 8.3 1 10 C-1 7 -1 7 -1 5 C-1.66 4.34 -2.32 3.68 -3 3 C-2.01 2.01 -1.02 1.02 0 0 Z " fill="#216BD6" transform="translate(86,78)"/>
<path d="M0 0 C-0.969375 0.268125 -1.93875 0.53625 -2.9375 0.8125 C-3.948125 1.204375 -4.95875 1.59625 -6 2 C-6.33 2.99 -6.66 3.98 -7 5 C-7.66 5 -8.32 5 -9 5 C-9 5.66 -9 6.32 -9 7 C-9.99 7 -10.98 7 -12 7 C-12 5.68 -12 4.36 -12 3 C-10.75823305 2.29773859 -9.50614401 1.61370891 -8.25 0.9375 C-7.20585937 0.36322266 -7.20585937 0.36322266 -6.140625 -0.22265625 C-3.63859372 -1.1312406 -2.4667645 -0.88336837 0 0 Z " fill="#2064CB" transform="translate(236,177)"/>
<path d="M0 0 C-5.62470514 3.06802099 -10.69403048 4.89061647 -17 6 C-16.34 5.67 -15.68 5.34 -15 5 C-14.67 4.01 -14.34 3.02 -14 2 C-12.35 2.33 -10.7 2.66 -9 3 C-9 2.01 -9 1.02 -9 0 C-5.5657338 -0.85856655 -3.38317487 -0.97591583 0 0 Z " fill="#6195DE" transform="translate(346,463)"/>
<path d="M0 0 C0.66 0.33 1.32 0.66 2 1 C1.625 3.4375 1.625 3.4375 1 6 C-1 7 -1 7 -2.8125 6.5 C-5.48166589 5.88990494 -7.36974946 6.34243737 -10 7 C-8.67408323 4.34816647 -7.13437549 3.74863527 -4.5625 2.3125 C-3.75941406 1.85488281 -2.95632813 1.39726562 -2.12890625 0.92578125 C-1.42636719 0.62027344 -0.72382813 0.31476563 0 0 Z " fill="#1A62C6" transform="translate(333,199)"/>
<path d="M0 0 C2.475 0.495 2.475 0.495 5 1 C5.33 2.32 5.66 3.64 6 5 C6.66 5 7.32 5 8 5 C8 6.65 8 8.3 8 10 C6.33333333 8.33333333 4.66666667 6.66666667 3 5 C2.401875 4.443125 1.80375 3.88625 1.1875 3.3125 C0 2 0 2 0 0 Z " fill="#4981D2" transform="translate(63,392)"/>
<path d="M0 0 C2.0622048 -0.054348 4.12482816 -0.09294961 6.1875 -0.125 C7.33605469 -0.14820313 8.48460937 -0.17140625 9.66796875 -0.1953125 C12.91740372 -0.00484152 15.08660521 0.60639873 18 2 C18 2.33 18 2.66 18 3 C11.97099313 2.48758893 5.97995357 1.930215 0 1 C0 0.67 0 0.34 0 0 Z " fill="#71A5E0" transform="translate(203,479)"/>
<path d="M0 0 C0.99 0 1.98 0 3 0 C3 0.99 3 1.98 3 3 C3.8971875 3.1546875 3.8971875 3.1546875 4.8125 3.3125 C7.28243264 4.08876455 8.32251235 5.07088921 10 7 C9.01 7.495 9.01 7.495 8 8 C6.0546875 7.109375 6.0546875 7.109375 3.875 5.75 C3.15054687 5.31171875 2.42609375 4.8734375 1.6796875 4.421875 C1.12539063 3.95265625 0.57109375 3.4834375 0 3 C0 2.01 0 1.02 0 0 Z " fill="#2566C7" transform="translate(349,300)"/>
<path d="M0 0 C0.66 0.66 1.32 1.32 2 2 C1.8125 4.0625 1.8125 4.0625 1 6 C0.01 6.33 -0.98 6.66 -2 7 C-2 7.99 -2 8.98 -2 10 C-2.66 10 -3.32 10 -4 10 C-3.5205537 5.78087253 -2.83374881 3.20336822 0 0 Z " fill="#437CCF" transform="translate(47,127)"/>
<path d="M0 0 C1.27875 0.103125 2.5575 0.20625 3.875 0.3125 C4.95394531 0.39951172 4.95394531 0.39951172 6.0546875 0.48828125 C8 1 8 1 10 4 C9.67 4.99 9.34 5.98 9 7 C7.4972763 6.02501855 5.99788037 5.04490611 4.5 4.0625 C3.6646875 3.51722656 2.829375 2.97195312 1.96875 2.41015625 C1.3190625 1.94480469 0.669375 1.47945313 0 1 C0 0.67 0 0.34 0 0 Z " fill="#1F65C6" transform="translate(338,123)"/>
<path d="M0 0 C9.41002278 -0.3690205 9.41002278 -0.3690205 14 2 C11 4 11 4 8.30078125 3.5390625 C7.31464844 3.23742187 6.32851563 2.93578125 5.3125 2.625 C4.31863281 2.32851562 3.32476562 2.03203125 2.30078125 1.7265625 C1.54152344 1.48679687 0.78226562 1.24703125 0 1 C0 0.67 0 0.34 0 0 Z " fill="#BAD7F6" transform="translate(286,105)"/>
<path d="M0 0 C-0.66 1.65 -1.32 3.3 -2 5 C-5.3 5.33 -8.6 5.66 -12 6 C-10.73884686 3.47769373 -9.62466575 3.11109845 -7.125 1.875 C-6.42632812 1.52179688 -5.72765625 1.16859375 -5.0078125 0.8046875 C-3 0 -3 0 0 0 Z " fill="#2E69C9" transform="translate(340,373)"/>
<path d="M0 0 C0.33 0.99 0.66 1.98 1 3 C1.66 3 2.32 3 3 3 C3 4.65 3 6.3 3 8 C-2.875 4.375 -2.875 4.375 -4 1 C-2.68 0.67 -1.36 0.34 0 0 Z " fill="#1C64C2" transform="translate(363,137)"/>
<path d="M0 0 C-1.375 1.5 -1.375 1.5 -3 3 C-3.66 3 -4.32 3 -5 3 C-5 3.66 -5 4.32 -5 5 C-6.65 5.66 -8.3 6.32 -10 7 C-10 6.01 -10 5.02 -10 4 C-9.01 4 -8.02 4 -7 4 C-7 3.01 -7 2.02 -7 1 C-4.53721199 -0.231394 -2.7204945 -0.07159196 0 0 Z " fill="#175FC2" transform="translate(177,125)"/>
<path d="M0 0 C4.455 2.97 4.455 2.97 9 6 C6 8 6 8 4 8 C4 7.01 4 6.02 4 5 C3.34 5 2.68 5 2 5 C2 4.34 2 3.68 2 3 C1.34 3 0.68 3 0 3 C0 2.01 0 1.02 0 0 Z " fill="#4D82D5" transform="translate(386,58)"/>
<path d="M0 0 C3.3 0.33 6.6 0.66 10 1 C10 1.66 10 2.32 10 3 C11.32 3.66 12.64 4.32 14 5 C8.94744036 4.36843005 4.70406799 2.86540627 0 1 C0 0.67 0 0.34 0 0 Z " fill="#6B9CDA" transform="translate(160,466)"/>
<path d="M0 0 C2.31 0.33 4.62 0.66 7 1 C6.01 1.495 6.01 1.495 5 2 C5 2.66 5 3.32 5 4 C3.02 4.33 1.04 4.66 -1 5 C-1 2 -1 2 0 0 Z " fill="#2870CD" transform="translate(324,466)"/>
<path d="M0 0 C0.33 1.65 0.66 3.3 1 5 C0.2575 4.814375 -0.485 4.62875 -1.25 4.4375 C-3.94990963 4.00796892 -5.44631077 4.14877026 -8 5 C-3.375 0 -3.375 0 0 0 Z " fill="#145EC9" transform="translate(348,368)"/>
<path d="M0 0 C3.61569905 2.63848309 6.02835214 4.95293333 8 9 C8 9.99 8 10.98 8 12 C7.34 12 6.68 12 6 12 C4.5625 9.8125 4.5625 9.8125 3 7 C2.443125 6.113125 1.88625 5.22625 1.3125 4.3125 C0 2 0 2 0 0 Z " fill="#2464C3" transform="translate(136,333)"/>
<path d="M0 0 C0.33 0.99 0.66 1.98 1 3 C-0.8125 6 -0.8125 6 -3 9 C-3.66 9.99 -4.32 10.98 -5 12 C-5.33 10.68 -5.66 9.36 -6 8 C-5.34 8 -4.68 8 -4 8 C-3.67 6.35 -3.34 4.7 -3 3 C-2.01 2.67 -1.02 2.34 0 2 C0 1.34 0 0.68 0 0 Z " fill="#2162C3" transform="translate(131,169)"/>
<path d="M0 0 C0.66 0.33 1.32 0.66 2 1 C-3.0940919 6.88183807 -3.0940919 6.88183807 -6.875 7.375 C-7.57625 7.25125 -8.2775 7.1275 -9 7 C-6.25604436 4.05278838 -3.61662784 1.80831392 0 0 Z " fill="#CAE3FB" transform="translate(185,120)"/>
<path d="M0 0 C-0.33 0.66 -0.66 1.32 -1 2 C-2.41623216 2.05447047 -3.83308191 2.09300508 -5.25 2.125 C-6.03890625 2.14820313 -6.8278125 2.17140625 -7.640625 2.1953125 C-10.20731941 1.9828378 -11.7916067 1.28654105 -14 0 C-11.98177083 0.03255208 -9.96354167 0.06510417 -7.9453125 0.09765625 C-0.86009174 -0.25802752 -0.86009174 -0.25802752 0 0 Z " fill="#3A7BCF" transform="translate(209,477)"/>
<path d="M0 0 C3.3 1.98 6.6 3.96 10 6 C9.67 6.66 9.34 7.32 9 8 C4.75153925 7.52794881 2.73180712 5.11122478 0 2 C0 1.34 0 0.68 0 0 Z " fill="#2462C0" transform="translate(166,364)"/>
<path d="M0 0 C1.53445094 3.06890187 0.54984289 5.70094266 0 9 C-0.99 9 -1.98 9 -3 9 C-3.33 9.66 -3.66 10.32 -4 11 C-3.48964169 6.6109185 -2.47785723 3.66291938 0 0 Z " fill="#2A6EC7" transform="translate(189,216)"/>
<path d="M0 0 C3.33773709 3.64116773 3.97864902 7.28607242 5 12 C4.34 12 3.68 12 3 12 C0.97649676 8.96474514 0.67875982 7.80573798 0.375 4.3125 C0.30023438 3.50425781 0.22546875 2.69601563 0.1484375 1.86328125 C0.09945313 1.24839844 0.05046875 0.63351563 0 0 Z " fill="#487FCD" transform="translate(464,156)"/>
<path d="M0 0 C0.66 0.33 1.32 0.66 2 1 C2 2.32 2 3.64 2 5 C-0.64 5.33 -3.28 5.66 -6 6 C-2.25 1.125 -2.25 1.125 0 0 Z " fill="#457ECF" transform="translate(102,64)"/>
<path d="M0 0 C0.33 0.66 0.66 1.32 1 2 C-1.16798732 7.4770206 -1.16798732 7.4770206 -4.1875 9.375 C-4.785625 9.58125 -5.38375 9.7875 -6 10 C-5.34 8.35 -4.68 6.7 -4 5 C-3.34 5 -2.68 5 -2 5 C-1.34 3.35 -0.68 1.7 0 0 Z " fill="#CBE4FA" transform="translate(142,156)"/>
<path d="M0 0 C0.99 0 1.98 0 3 0 C1.68775452 3.93673644 0.08089673 6.22719294 -3 9 C-2.67 7.02 -2.34 5.04 -2 3 C-1.34 3 -0.68 3 0 3 C0 2.01 0 1.02 0 0 Z " fill="#4C84D2" transform="translate(447,369)"/>
<path d="M0 0 C1.32 0.33 2.64 0.66 4 1 C4 1.99 4 2.98 4 4 C4.66 4.33 5.32 4.66 6 5 C6 6.65 6 8.3 6 10 C2.63408573 7.27521226 1.55773724 3.93143208 0 0 Z " fill="#578DD9" transform="translate(39,355)"/>
<path d="M0 0 C1.98 0.66 3.96 1.32 6 2 C6 2.66 6 3.32 6 4 C6.66 4.33 7.32 4.66 8 5 C5.36 5 2.72 5 0 5 C0 3.35 0 1.7 0 0 Z " fill="#D7EEFB" transform="translate(218,313)"/>
<path d="M0 0 C0.33 0.66 0.66 1.32 1 2 C0.67 2.66 0.34 3.32 0 4 C0.66 4.33 1.32 4.66 2 5 C0.625 6.5 0.625 6.5 -1 8 C-1.66 8 -2.32 8 -3 8 C-2.45276317 4.62537285 -1.9451 2.91765 0 0 Z " fill="#2469CB" transform="translate(193,208)"/>
<path d="M0 0 C-1.24546405 3.73639216 -2.63404953 4.18756513 -6 6 C-6.33 4.68 -6.66 3.36 -7 2 C-4 0 -4 0 0 0 Z " fill="#165AC1" transform="translate(159,138)"/>
<path d="M0 0 C0.33 1.32 0.66 2.64 1 4 C-4.2734375 7.22265625 -4.2734375 7.22265625 -6 8 C-6.66 7.67 -7.32 7.34 -8 7 C-6.68 6.34 -5.36 5.68 -4 5 C-4 4.34 -4 3.68 -4 3 C-2 1.375 -2 1.375 0 0 Z " fill="#5B97D9" transform="translate(95,70)"/>
<path d="M0 0 C2.64 0 5.28 0 8 0 C8 0.66 8 1.32 8 2 C9.32 2 10.64 2 12 2 C12 2.66 12 3.32 12 4 C6.06 2.515 6.06 2.515 0 1 C0 0.67 0 0.34 0 0 Z " fill="#5088D6" transform="translate(174,471)"/>
<path d="M0 0 C1.98 0 3.96 0 6 0 C2.71195019 2.91227269 0.40114397 4.49701212 -4 5 C-3.67 4.01 -3.34 3.02 -3 2 C-2.01 2 -1.02 2 0 2 C0 1.34 0 0.68 0 0 Z " fill="#5689D7" transform="translate(358,453)"/>
<path d="M0 0 C2.475 0.495 2.475 0.495 5 1 C5.33 3.31 5.66 5.62 6 8 C1.125 3.375 1.125 3.375 0 0 Z " fill="#4B87D5" transform="translate(54,380)"/>
<path d="M0 0 C3 1 3 1 4.1875 3.0625 C4.455625 3.701875 4.72375 4.34125 5 5 C3.02 5.33 1.04 5.66 -1 6 C-1 3 -1 3 0 0 Z " fill="#1660CB" transform="translate(146,346)"/>
<path d="M0 0 C2.97 0 5.94 0 9 0 C9.66 1.32 10.32 2.64 11 4 C7.37 3.01 3.74 2.02 0 1 C0 0.67 0 0.34 0 0 Z " fill="#2A6BC8" transform="translate(231,319)"/>
<path d="M0 0 C0.33 0.99 0.66 1.98 1 3 C1.66 3 2.32 3 3 3 C3 5.97 3 8.94 3 12 C0.97649676 8.96474514 0.67875982 7.80573798 0.375 4.3125 C0.30023437 3.50425781 0.22546875 2.69601562 0.1484375 1.86328125 C0.09945313 1.24839844 0.05046875 0.63351562 0 0 Z " fill="#548BDC" transform="translate(20,301)"/>
<path d="M0 0 C1.65 0.33 3.3 0.66 5 1 C3.48065294 4.03869411 1.01995228 4.64410306 -2 6 C-2.66 6 -3.32 6 -4 6 C-4 5.34 -4 4.68 -4 4 C-3.01 4 -2.02 4 -1 4 C-0.67 2.68 -0.34 1.36 0 0 Z " fill="#CFE6FC" transform="translate(332,196)"/>
<path d="M0 0 C0.66 0.33 1.32 0.66 2 1 C0.875 3.4375 0.875 3.4375 -1 6 C-4.1875 6.8125 -4.1875 6.8125 -7 7 C-6.67 6.34 -6.34 5.68 -6 5 C-5.34 5 -4.68 5 -4 5 C-4 4.34 -4 3.68 -4 3 C-2 1.375 -2 1.375 0 0 Z " fill="#C0DDF9" transform="translate(168,131)"/>
<path d="M0 0 C0 0.66 0 1.32 0 2 C-0.66 2 -1.32 2 -2 2 C-2 2.99 -2 3.98 -2 5 C-3.98 5 -5.96 5 -8 5 C-3.16129032 0 -3.16129032 0 0 0 Z " fill="#5F91D4" transform="translate(135,43)"/>
<path d="M0 0 C6.0546875 -0.1953125 6.0546875 -0.1953125 8 0 C8.66 0.66 9.32 1.32 10 2 C9.01 2 8.02 2 7 2 C7 2.66 7 3.32 7 4 C4.08482708 2.92598892 2.22189824 2.22189824 0 0 Z " fill="#1B62C7" transform="translate(328,290)"/>
<path d="M0 0 C-2.97 1.32 -5.94 2.64 -9 4 C-9 2.68 -9 1.36 -9 0 C-5.32431536 -0.91892116 -3.83619425 -0.95904856 0 0 Z " fill="#D3EBFD" transform="translate(228,179)"/>
<path d="M0 0 C2 1.375 2 1.375 4 3 C4 3.66 4 4.32 4 5 C4.66 5 5.32 5 6 5 C5.67 5.66 5.34 6.32 5 7 C2.525 6.01 2.525 6.01 0 5 C0 3.35 0 1.7 0 0 Z " fill="#477FD0" transform="translate(418,86)"/>
<path d="M0 0 C1 2 1 2 0.4375 4 C-1.57302108 6.79724672 -3.74418077 7.15065585 -7 8 C-6.02133662 6.85373678 -5.04205413 5.70800212 -4.0625 4.5625 C-3.51722656 3.92441406 -2.97195312 3.28632812 -2.41015625 2.62890625 C-1.63204305 1.73008851 -0.84063472 0.84063472 0 0 Z " fill="#6DA1DE" transform="translate(82,82)"/>
<path d="M0 0 C0.99 0.99 1.98 1.98 3 3 C2.67 3.99 2.34 4.98 2 6 C1.34 6 0.68 6 0 6 C0 5.34 0 4.68 0 4 C-0.99 4 -1.98 4 -3 4 C-3 3.34 -3 2.68 -3 2 C-2.01 1.34 -1.02 0.68 0 0 Z " fill="#0A57C5" transform="translate(90,76)"/>
<path d="M0 0 C2.475 0.495 2.475 0.495 5 1 C5 1.66 5 2.32 5 3 C3.35 3.66 1.7 4.32 0 5 C0 3.35 0 1.7 0 0 Z " fill="#2E70CA" transform="translate(372,443)"/>
<path d="M0 0 C2.97 0.495 2.97 0.495 6 1 C6.33 2.98 6.66 4.96 7 7 C6.01 6.34 5.02 5.68 4 5 C4 4.34 4 3.68 4 3 C2.68 2.34 1.36 1.68 0 1 C0 0.67 0 0.34 0 0 Z " fill="#487BCC" transform="translate(78,410)"/>
<path d="M0 0 C0.99 0 1.98 0 3 0 C4.25664978 2.90600261 5 4.79604584 5 8 C4.34 8 3.68 8 3 8 C0 2.25 0 2.25 0 0 Z " fill="#5D8DD3" transform="translate(45,365)"/>
<path d="M0 0 C0.33 0.66 0.66 1.32 1 2 C-0.25 4.5625 -0.25 4.5625 -2 7 C-2.99 7.33 -3.98 7.66 -5 8 C-4.45773019 4.20411134 -2.79872437 2.52788007 0 0 Z " fill="#346ECC" transform="translate(365,351)"/>
<path d="M0 0 C2.97 0 5.94 0 9 0 C8.67 0.99 8.34 1.98 8 3 C5.6875 3.1875 5.6875 3.1875 3 3 C2.01 2.01 1.02 1.02 0 0 Z " fill="#2969D6" transform="translate(214,310)"/>
<path d="M0 0 C0.33 1.32 0.66 2.64 1 4 C1.99 3.67 2.98 3.34 4 3 C4.33 3.99 4.66 4.98 5 6 C2.625 5.6875 2.625 5.6875 0 5 C-0.66 4.01 -1.32 3.02 -2 2 C-1.34 1.34 -0.68 0.68 0 0 Z " fill="#165DC5" transform="translate(212,304)"/>
<path d="M0 0 C0.66 0 1.32 0 2 0 C1.34 3.3 0.68 6.6 0 10 C-0.33 10 -0.66 10 -1 10 C-1.02689216 8.52093108 -1.04634621 7.04172517 -1.0625 5.5625 C-1.07410156 4.73878906 -1.08570312 3.91507813 -1.09765625 3.06640625 C-1 1 -1 1 0 0 Z " fill="#296AC7" transform="translate(114,204)"/>
<path d="M0 0 C1.32 0 2.64 0 4 0 C4.33 1.98 4.66 3.96 5 6 C3.2925002 4.71937515 1.62626404 3.38232443 0 2 C0 1.34 0 0.68 0 0 Z " fill="#2167C6" transform="translate(368,146)"/>
<path d="M0 0 C0.66 0 1.32 0 2 0 C1.6875 2.875 1.6875 2.875 1 6 C0.01 6.66 -0.98 7.32 -2 8 C-2.33 7.01 -2.66 6.02 -3 5 C-2.34 5 -1.68 5 -1 5 C-0.67 3.35 -0.34 1.7 0 0 Z " fill="#0856C5" transform="translate(51,122)"/>
<path d="M0 0 C-2.76223278 2.76223278 -5.20706617 2.57856291 -9 3 C-5.83583464 -0.30799106 -4.50236011 -1.35070803 0 0 Z " fill="#2C6AC1" transform="translate(323,383)"/>
<path d="M0 0 C0.33 0.66 0.66 1.32 1 2 C0.06553465 4.03144641 -0.93224776 6.03533587 -2 8 C-2.66 8 -3.32 8 -4 8 C-4 6.35 -4 4.7 -4 3 C-3.01 3 -2.02 3 -1 3 C-0.67 2.01 -0.34 1.02 0 0 Z " fill="#598BD6" transform="translate(454,360)"/>
<path d="M0 0 C0.66 0 1.32 0 2 0 C1.8125 2.3125 1.8125 2.3125 1 5 C-1.5625 6.8125 -1.5625 6.8125 -4 8 C-2.87548273 5.0280615 -1.77706209 2.66559313 0 0 Z " fill="#4079CA" transform="translate(384,328)"/>
<path d="M0 0 C1.65 0 3.3 0 5 0 C5.33 1.98 5.66 3.96 6 6 C3.97945196 4.35830472 1.97956942 2.69088222 0 1 C0 0.67 0 0.34 0 0 Z " fill="#2569CB" transform="translate(201,298)"/>
</svg>
